<svg width="12" height="12" viewBox="0 0 12 12" fill="none" xmlns="http://www.w3.org/2000/svg">
<path d="M2.75643 11.901C2.41184 11.901 2.11751 11.779 1.87346 11.5349C1.6294 11.2909 1.50737 10.9966 1.50737 10.652V1.88204H0.816406V0.845604H3.92574V0.234375H8.07154V0.845604H11.1809V1.88204H10.4899V10.652C10.4899 11.001 10.369 11.2964 10.1272 11.5383C9.88531 11.7801 9.58988 11.901 9.24085 11.901H2.75643ZM9.45347 1.88204H2.54381V10.652C2.54381 10.714 2.56374 10.7649 2.60361 10.8048C2.64348 10.8447 2.69442 10.8646 2.75643 10.8646H9.24085C9.29401 10.8646 9.34274 10.8425 9.38704 10.7982C9.43133 10.7539 9.45347 10.7051 9.45347 10.652V1.88204ZM4.2048 9.48267H5.24124V3.26397H4.2048V9.48267ZM6.75604 9.48267H7.79248V3.26397H6.75604V9.48267Z" fill="#666666"/>
</svg>
