<svg width="20" height="22" viewBox="0 0 20 22" fill="none" xmlns="http://www.w3.org/2000/svg">
<path id="Vector" d="M3.91469 21.9481C3.26792 21.9481 2.7155 21.719 2.25744 21.2609C1.79936 20.8029 1.57032 20.2505 1.57032 19.6037V3.1433H0.273438V1.198H6.10938V0.0507812H13.8907V1.198H19.7266V3.1433H18.4297V19.6037C18.4297 20.2588 18.2028 20.8133 17.7489 21.2672C17.295 21.7211 16.7405 21.9481 16.0854 21.9481H3.91469ZM16.4844 3.1433H3.51561V19.6037C3.51561 19.7201 3.55303 19.8157 3.62786 19.8905C3.70269 19.9654 3.7983 20.0028 3.91469 20.0028H16.0854C16.1851 20.0028 16.2766 19.9612 16.3597 19.8781C16.4429 19.7949 16.4844 19.7035 16.4844 19.6037V3.1433ZM6.63316 17.409H8.57845V5.73706H6.63316V17.409ZM11.4216 17.409H13.3669V5.73706H11.4216V17.409Z" fill="#E60000"/>
</svg>
